<?xml version="1.0" encoding="utf-8"?>
<!-- Generator: Adobe Illustrator 25.4.3, SVG Export Plug-In . SVG Version: 6.00 Build 0)  -->
<svg version="1.1"
	 id="svg2" inkscape:export-filename="F:\research\drummondlab.github.io\assets\themes\lab\images\logo\logo-v2.png" inkscape:export-xdpi="1285.7142" xmlns:cc="http://creativecommons.org/ns#" xmlns:dc="http://purl.org/dc/elements/1.1/" xmlns:inkscape="http://www.inkscape.org/namespaces/inkscape" xmlns:rdf="http://www.w3.org/1999/02/22-rdf-syntax-ns#" xmlns:sodipodi="http://sodipodi.sourceforge.net/DTD/sodipodi-0.dtd" xmlns:svg="http://www.w3.org/2000/svg"
	 xmlns="http://www.w3.org/2000/svg" xmlns:xlink="http://www.w3.org/1999/xlink" x="0px" y="0px" viewBox="0 0 32.3 31.2"
	 style="enable-background:new 0 0 32.3 31.2;" xml:space="preserve">
<style type="text/css">
	.st0{fill:none;stroke:#221F1F;stroke-width:1.5;stroke-miterlimit:10;}
	.st1{fill:#EC1C24;}
</style>
<sodipodi:namedview  bordercolor="#666666" borderopacity="1.0" fit-margin-bottom="0" fit-margin-left="0" fit-margin-right="0" fit-margin-top="0" id="base" inkscape:current-layer="layer1" inkscape:cx="32.883356" inkscape:cy="17.057981" inkscape:document-units="px" inkscape:pageopacity="0.0" inkscape:pageshadow="2" inkscape:window-height="1387" inkscape:window-maximized="1" inkscape:window-width="2560" inkscape:window-x="-8" inkscape:window-y="-8" inkscape:zoom="22.4" pagecolor="#ffffff" showgrid="false">
	</sodipodi:namedview>
<sodipodi:namedview  bordercolor="#666666" borderopacity="1.0" fit-margin-bottom="0" fit-margin-left="0" fit-margin-right="0" fit-margin-top="0" id="base" inkscape:current-layer="layer1" inkscape:cx="32.883356" inkscape:cy="17.057981" inkscape:document-units="px" inkscape:pageopacity="0.0" inkscape:pageshadow="2" inkscape:window-height="1387" inkscape:window-maximized="1" inkscape:window-width="2560" inkscape:window-x="-8" inkscape:window-y="-8" inkscape:zoom="22.4" pagecolor="#ffffff" showgrid="false">
	</sodipodi:namedview>
<line class="st0" x1="8.2" y1="31.1" x2="8.2" y2="0.1"/>
<line class="st0" x1="4.6" y1="31.1" x2="4.6" y2="0.1"/>
<line class="st0" x1="1" y1="31.1" x2="1" y2="0.1"/>
<path class="st0" d="M19.4,6.8c4.9,4.9,4.9,12.7,0,17.6"/>
<path class="st0" d="M22.3,3.9c6.6,6.6,6.6,17.2,0,23.8"/>
<path class="st0" d="M25.1,0.8c8.2,8.2,8.2,21.5,0,29.8"/>
<g>
	<g>
		<g>
			<path class="st1" d="M19.5,0.9c-0.1,1.6-0.6,3-1.4,4.2c-0.9,1.4-1.9,2.7-2.9,4c-0.9,1.3-1.9,2.5-2.5,3.9
				c-0.8,1.8-0.7,3.5,0.1,5.3c0.8,1.6,1.9,3,3,4.4c1.1,1.5,2.3,3,3,4.7c0.4,0.9,0.6,1.8,0.7,2.8c0,0.6-0.3,0.9-0.8,0.9
				c-0.4,0-0.6-0.2-0.6-0.6c-0.1-2.2-1.2-3.9-2.4-5.6c-1.2-1.6-2.4-3.1-3.5-4.8c-1-1.6-1.7-3.3-1.5-5.2c0.1-1.3,0.6-2.6,1.3-3.7
				c1-1.5,2.1-3,3.2-4.5c0.9-1.3,1.9-2.5,2.4-4c0.2-0.7,0.3-1.4,0.5-2C18.1,0.3,18.3,0,18.8,0C19.3,0,19.5,0.4,19.5,0.9z"/>
			<path class="st1" d="M15.3,9.7c0.3-0.4,0.6-0.8,0.9-1.2c0.4,0.6,0.8,1.1,1.1,1.6c0.6,1.1,1.2,2.1,1.7,3.2c0.6,1.5,0.5,3.1,0,4.7
				c-0.6,1.7-1.7,3.2-2.8,4.6c-0.3-0.4-0.6-0.8-0.9-1.2c0.5-0.7,1-1.4,1.4-2.2c0.8-1.3,1.4-2.6,1.2-4.1c-0.1-1.2-0.6-2.2-1.2-3.2
				C16.3,11.2,15.8,10.5,15.3,9.7z"/>
			<path class="st1" d="M13.9,23.2c0.3,0.4,0.6,0.8,0.9,1.2c-0.5,0.8-1.1,1.5-1.5,2.3c-0.7,1.2-1.2,2.4-1.3,3.8
				c0,0.4-0.3,0.7-0.7,0.7c-0.4,0-0.7-0.3-0.7-0.7c0-0.6,0.1-1.3,0.3-1.9c0.5-1.8,1.5-3.2,2.5-4.7C13.6,23.6,13.7,23.4,13.9,23.2z"
				/>
			<path class="st1" d="M14.8,6.8c-0.3,0.4-0.6,0.8-0.9,1.2c-1.4-1.9-2.8-3.7-3.3-6.1c-0.1-0.4-0.1-0.8-0.1-1.2
				c0-0.4,0.3-0.7,0.7-0.7C11.7,0,12,0.2,12,0.6c0,1.9,1,3.5,2,5C14.3,6,14.5,6.4,14.8,6.8z"/>
		</g>
	</g>
</g>
</svg>
